<?xml version="1.0" encoding="utf-8" ?>
<svg baseProfile="full" height="100%" version="1.1" width="100%" xmlns="http://www.w3.org/2000/svg" xmlns:ev="http://www.w3.org/2001/xml-events" xmlns:xlink="http://www.w3.org/1999/xlink"><defs /><rect fill="rgb(50,50,50)" height="100%" width="100%" x="0" y="0" /><rect fill="rgb(198, 154, 141)" height="50" width="50" x="250" y="400" /><rect fill="rgb(198, 154, 141)" height="50" width="50" x="250" y="350" /><rect fill="rgb(198, 154, 141)" height="50" width="50" x="350" y="300" /><rect fill="rgb(198, 154, 141)" height="50" width="50" x="300" y="50" /><rect fill="rgb(198, 154, 141)" height="50" width="50" x="350" y="50" /><rect fill="rgb(198, 154, 141)" height="50" width="50" x="100" y="300" /><rect fill="rgb(198, 154, 141)" height="50" width="50" x="200" y="250" /><rect fill="rgb(198, 154, 141)" height="50" width="50" x="250" y="200" /><rect fill="rgb(198, 154, 141)" height="50" width="50" x="450" y="150" /><rect fill="rgb(198, 154, 141)" height="50" width="50" x="100" y="450" /><rect fill="rgb(198, 154, 141)" height="50" width="50" x="100" y="400" /><rect fill="rgb(198, 154, 141)" height="50" width="50" x="150" y="300" /><rect fill="rgb(198, 154, 141)" height="50" width="50" x="250" y="250" /><rect fill="rgb(198, 154, 141)" height="50" width="50" x="600" y="300" /><rect fill="rgb(198, 154, 141)" height="50" width="50" x="50" y="650" /><rect fill="rgb(198, 154, 141)" height="50" width="50" x="700" y="100" /><rect fill="rgb(198, 154, 141)" height="50" width="50" x="250" y="650" /><rect fill="rgb(198, 154, 141)" height="50" width="50" x="450" y="550" /><rect fill="rgb(198, 154, 141)" height="50" width="50" x="400" y="250" /><rect fill="rgb(198, 154, 141)" height="50" width="50" x="300" y="550" /><rect fill="rgb(198, 154, 141)" height="50" width="50" x="300" y="500" /><rect fill="rgb(198, 154, 141)" height="50" width="50" x="600" y="550" /><rect fill="rgb(198, 154, 141)" height="50" width="50" x="550" y="550" /><rect fill="rgb(198, 154, 141)" height="50" width="50" x="1100" y="600" /><rect fill="rgb(198, 154, 141)" height="50" width="50" x="1150" y="600" /><rect fill="rgb(198, 154, 141)" height="50" width="50" x="50" y="750" /><rect fill="rgb(198, 154, 141)" height="50" width="50" x="700" y="150" /><rect fill="rgb(198, 154, 141)" height="50" width="50" x="250" y="700" /><rect fill="rgb(198, 154, 141)" height="50" width="50" x="400" y="550" /><rect fill="rgb(198, 154, 141)" height="50" width="50" x="100" y="150" /><rect fill="rgb(198, 154, 141)" height="50" width="50" x="200" y="150" /><rect fill="rgb(198, 154, 141)" height="50" width="50" x="650" y="200" /><rect fill="rgb(198, 154, 141)" height="50" width="50" x="150" y="650" /><rect fill="rgb(198, 154, 141)" height="50" width="50" x="100" y="650" /><rect fill="rgb(198, 154, 141)" height="50" width="50" x="50" y="150" /><rect fill="rgb(198, 154, 141)" height="50" width="50" x="50" y="100" /><rect fill="rgb(141, 198, 189)" height="50" width="50" x="0" y="50" /><rect fill="rgb(141, 198, 189)" height="50" width="50" x="50" y="50" /><rect fill="rgb(141, 198, 189)" height="50" width="50" x="100" y="50" /><rect fill="rgb(141, 198, 189)" height="50" width="50" x="100" y="100" /><rect fill="rgb(141, 198, 189)" height="50" width="50" x="150" y="100" /><rect fill="rgb(141, 198, 189)" height="50" width="50" x="200" y="100" /><rect fill="rgb(141, 198, 189)" height="50" width="50" x="250" y="100" /><rect fill="rgb(141, 198, 189)" height="50" width="50" x="250" y="150" /><rect fill="rgb(141, 198, 189)" height="50" width="50" x="300" y="150" /><rect fill="rgb(141, 198, 189)" height="50" width="50" x="300" y="200" /><rect fill="rgb(141, 198, 189)" height="50" width="50" x="300" y="250" /><rect fill="rgb(141, 198, 189)" height="50" width="50" x="300" y="300" /><rect fill="rgb(141, 198, 189)" height="50" width="50" x="300" y="350" /><rect fill="rgb(141, 198, 189)" height="50" width="50" x="300" y="400" /><rect fill="rgb(141, 198, 189)" height="50" width="50" x="350" y="400" /><rect fill="rgb(141, 198, 147)" height="50" width="50" x="0" y="0" /><rect fill="rgb(141, 167, 198)" height="50" width="50" x="350" y="400" /></svg>